<?xml version="1.0" encoding="utf-8" ?>
<svg baseProfile="full" height="512px" version="1.1" width="512px" xmlns="http://www.w3.org/2000/svg" xmlns:ev="http://www.w3.org/2001/xml-events" xmlns:xlink="http://www.w3.org/1999/xlink"><defs /><path d="M 160,64 L 256,160 L 160,256 L 64,160 Z" fill="black" /><path d="M 160,112 L 208,160 L 160,208 L 112,160 Z" fill="white" /><path d="M 352,64 L 448,160 L 352,256 L 256,160 Z" fill="black" /><path d="M 352,112 L 400,160 L 352,208 L 304,160 Z" fill="white" /><path d="M 160,256 L 256,352 L 160,448 L 64,352 Z" fill="black" /><path d="M 160,304 L 208,352 L 160,400 L 112,352 Z" fill="white" /><path d="M 352,256 L 448,352 L 352,448 L 256,352 Z" fill="black" /><path d="M 352,304 L 400,352 L 352,400 L 304,352 Z" fill="white" /></svg>