<?xml version="1.0" encoding="UTF-8"?>
<!-- Generator: https://ezgif.com/png-to-svg -->
<svg version="1.1" xmlns="http://www.w3.org/2000/svg" width="1024" height="1024">
<path d="M0 0 C2.4 0.07 4.8 0.13 7.19 0.18 C8.72 0.23 10.25 0.27 11.78 0.31 C12.5 0.33 13.21 0.34 13.95 0.36 C18.95 0.51 18.95 0.51 21.18 1.63 C23.66 2.01 26.13 2.34 28.62 2.64 C30.18 2.84 31.73 3.04 33.29 3.24 C34.11 3.34 34.92 3.45 35.77 3.55 C51.4 5.55 66.85 7.89 82.18 11.63 C83.05 11.84 83.92 12.05 84.83 12.27 C96.61 15.19 108.15 18.83 119.68 22.63 C120.9 23.03 122.13 23.43 123.4 23.85 C129.68 25.96 135.89 28.22 142.02 30.75 C143.18 31.23 144.33 31.71 145.53 32.2 C148.18 33.63 148.18 33.63 149.18 36.63 C148.58 36.77 147.98 36.91 147.37 37.05 C100.66 48.12 53.03 65.34 13.18 92.63 C11.86 93.51 10.55 94.39 9.23 95.28 C-9.9 108.18 -27.81 122.52 -43.53 139.47 C-44.82 140.63 -44.82 140.63 -46.82 140.63 C-47.03 141.16 -47.24 141.69 -47.46 142.24 C-49.37 145.58 -52.03 148.13 -54.7 150.88 C-61.76 158.32 -67.88 166.28 -73.82 174.63 C-74.3 175.3 -74.78 175.96 -75.27 176.65 C-122.93 243.76 -145.61 327.84 -132.51 409.7 C-131.7 414.36 -130.79 419 -129.82 423.63 C-129.56 424.92 -129.56 424.92 -129.3 426.24 C-124.85 447.86 -117.36 468.74 -107.82 488.63 C-107.27 489.81 -107.27 489.81 -106.7 491.02 C-91.67 522.84 -69.95 553.23 -43.3 576.46 C-41.61 577.94 -39.95 579.45 -38.32 580.98 C-3.91 613.29 40.95 635.32 86.18 647.63 C86.99 647.85 87.8 648.07 88.64 648.3 C159.86 667.44 238.87 656.8 302.92 620.32 C305.02 619.1 307.1 617.87 309.18 616.63 C309.84 616.23 310.51 615.84 311.2 615.43 C326.61 606.25 341.16 596 354.18 583.63 C355.42 582.56 356.67 581.5 357.93 580.44 C374.48 566.14 374.48 566.14 387.18 548.63 C388.17 548.96 389.16 549.29 390.18 549.63 C375.79 586.32 359.5 621.64 336.18 653.63 C335.44 654.64 334.71 655.65 333.96 656.69 C324.54 669.49 314.42 681.63 303.52 693.18 C301.51 695.34 299.57 697.55 297.61 699.75 C282.1 717.03 263.99 732.07 245.18 745.63 C244.48 746.13 243.79 746.64 243.07 747.16 C231.02 755.9 218.61 763.75 205.7 771.16 C203.17 772.63 200.69 774.15 198.2 775.67 C193.11 778.74 187.86 781.35 182.49 783.88 C181.49 784.35 180.5 784.82 179.47 785.3 C176.38 786.76 173.28 788.19 170.18 789.63 C169.23 790.07 168.28 790.51 167.31 790.96 C133.26 806.64 96.36 816.87 59.18 821.63 C58.36 821.74 57.55 821.85 56.71 821.96 C36.28 824.65 15.76 824.93 -4.82 824.63 C-5.77 824.62 -6.71 824.6 -7.68 824.59 C-36.47 824.08 -64.5 819.46 -92.55 813.29 C-95.17 812.76 -97.7 812.36 -100.35 812.11 C-103.52 811.67 -105.87 810.87 -108.75 809.52 C-113.54 807.45 -118.6 806.02 -123.57 804.44 C-125.28 803.89 -125.28 803.89 -127.02 803.32 C-128.1 802.98 -129.19 802.63 -130.31 802.27 C-131.3 801.96 -132.28 801.64 -133.3 801.31 C-135.87 800.5 -135.87 800.5 -138.82 800.63 C-138.82 799.97 -138.82 799.31 -138.82 798.63 C-139.82 798.38 -139.82 798.38 -140.84 798.14 C-147.88 796.33 -154.38 793.9 -161.01 790.94 C-162.01 790.5 -163 790.06 -164.02 789.61 C-172.43 785.88 -180.65 781.84 -188.82 777.63 C-189.76 777.18 -190.7 776.72 -191.66 776.26 C-196.88 773.57 -201.89 770.5 -206.92 767.48 C-207.74 767 -208.55 766.52 -209.39 766.03 C-210.12 765.59 -210.85 765.15 -211.61 764.7 C-214.01 763.54 -216.2 763.04 -218.82 762.63 C-219.15 761.64 -219.48 760.65 -219.82 759.63 C-221.86 758.17 -223.87 756.86 -226.01 755.57 C-237.16 748.61 -247.64 740.93 -257.82 732.63 C-258.63 731.99 -259.44 731.36 -260.27 730.71 C-265.95 726.25 -271.29 721.54 -276.57 716.63 C-278.65 714.6 -278.65 714.6 -280.82 713.63 C-280.82 712.97 -280.82 712.31 -280.82 711.63 C-281.37 711.4 -281.92 711.18 -282.49 710.95 C-285.53 709.23 -287.79 706.93 -290.22 704.46 C-290.73 703.95 -291.24 703.44 -291.77 702.92 C-292.84 701.83 -293.92 700.75 -295 699.66 C-296.62 698.02 -298.24 696.39 -299.87 694.76 C-305.39 689.23 -310.8 683.63 -315.82 677.63 C-316.59 676.71 -316.59 676.71 -317.38 675.77 C-333.89 655.91 -348.58 635.05 -361.76 612.82 C-362.39 611.76 -362.39 611.76 -363.03 610.68 C-365.82 605.88 -365.82 605.88 -365.82 603.63 C-366.48 603.3 -367.14 602.97 -367.82 602.63 C-368.78 600.98 -368.78 600.98 -369.78 598.83 C-370.15 598.04 -370.52 597.25 -370.9 596.44 C-371.29 595.6 -371.67 594.75 -372.07 593.88 C-372.47 593.02 -372.87 592.16 -373.29 591.28 C-374.47 588.73 -375.65 586.18 -376.82 583.63 C-377.44 582.29 -378.06 580.95 -378.68 579.62 C-379.67 577.48 -380.65 575.34 -381.63 573.19 C-382.36 571.63 -383.11 570.08 -383.91 568.55 C-384.88 566.51 -385.48 564.55 -386.07 562.38 C-387.34 558.03 -388.87 553.85 -390.51 549.63 C-403.04 516.63 -410.03 482.35 -413.47 447.3 C-413.67 444.66 -413.67 444.66 -414.82 442.63 C-414.92 441 -414.96 439.38 -414.97 437.75 C-414.98 436.73 -414.98 435.71 -414.99 434.66 C-414.99 433.54 -414.99 432.43 -414.99 431.28 C-415 430.12 -415 428.96 -415 427.77 C-415.01 425.3 -415.01 422.82 -415.01 420.35 C-415.01 416.66 -415.03 412.97 -415.05 409.28 C-415.1 389.41 -414.1 369.68 -411.2 350 C-410.35 344.15 -409.65 338.54 -409.82 332.63 C-409.16 332.63 -408.5 332.63 -407.82 332.63 C-407.78 332.05 -407.74 331.46 -407.7 330.86 C-407.11 323.96 -405.84 317.36 -404.26 310.63 C-404 309.5 -403.74 308.37 -403.46 307.21 C-396.75 279.19 -387.28 251.62 -374.82 225.63 C-374.41 224.75 -373.99 223.87 -373.57 222.97 C-366.89 208.91 -359.27 195.69 -350.82 182.63 C-350.38 181.94 -349.94 181.24 -349.49 180.53 C-338.9 163.99 -326.65 148.76 -313.59 134.12 C-312.97 133.42 -312.34 132.72 -311.7 132 C-311.18 131.43 -310.66 130.86 -310.13 130.28 C-308.73 128.63 -308.73 128.63 -307.76 126.47 C-306.82 124.63 -306.82 124.63 -304.95 123.82 C-302.5 122.44 -302.13 121.58 -300.89 119.13 C-299.05 115.62 -297.56 114.97 -293.82 113.63 C-292.81 111.97 -291.81 110.31 -290.82 108.63 C-289.16 107.62 -287.49 106.62 -285.82 105.63 C-284.08 104.12 -282.38 102.58 -280.7 101 C-269.44 90.6 -257.23 81.6 -244.82 72.63 C-244.24 72.2 -243.66 71.78 -243.07 71.35 C-217.9 53.06 -189.78 37.95 -160.82 26.63 C-159.88 26.26 -158.94 25.89 -157.96 25.51 C-107.16 5.92 -54.25 -1.52 0 0 Z " fill="#000000" transform="translate(522.824462890625,99.372314453125)"/>
<path d="M0 0 C0 0.33 0 0.66 0 1 C-14.52 1 -29.04 1 -44 1 C-44 1.66 -44 2.32 -44 3 C-45.98 3.33 -47.96 3.66 -50 4 C-50 3.34 -50 2.68 -50 2 C-57.92 2.33 -65.84 2.66 -74 3 C-74 2.67 -74 2.34 -74 2 C-49.13 -0.84 -25 -1.15 0 0 Z " fill="#505050" transform="translate(531,100)"/>
<path d="M0 0 C0.66 0.33 1.32 0.66 2 1 C-4.72 7.83 -11.48 14.44 -18.87 20.55 C-22.72 23.76 -25.9 27.05 -29 31 C-29.99 30.67 -30.98 30.34 -32 30 C-31.26 29.28 -30.51 28.56 -29.75 27.81 C-27.01 25.13 -27.01 25.13 -25 22.38 C-23 20 -23 20 -20.38 18.44 C-17.89 17.22 -17.89 17.22 -17 15 C-16 13 -16 13 -13.8 11.7 C-10.55 9.73 -7.98 7.4 -5.19 4.81 C-4.69 4.35 -4.18 3.89 -3.67 3.41 C-2.44 2.28 -1.22 1.14 0 0 Z " fill="#353534" transform="translate(248,195)"/>
<path d="M0 0 C0.99 0.33 1.98 0.66 3 1 C1.02 5.95 -0.96 10.9 -3 16 C-3.66 15.34 -4.32 14.68 -5 14 C-5 13.01 -5 12.02 -5 11 C-6.98 11.99 -6.98 11.99 -9 13 C-7.65 10.04 -6.1 7.79 -3.94 5.38 C-2.34 3.58 -1.08 2.15 0 0 Z " fill="#353534" transform="translate(910,648)"/>
<path d="M0 0 C0.33 0.99 0.66 1.98 1 3 C-4.94 8.45 -4.94 8.45 -11 14 C-11.66 13.67 -12.32 13.34 -13 13 C-8.71 8.71 -4.42 4.42 0 0 Z " fill="#353434" transform="translate(899,662)"/>
<path d="M0 0 C3.44 0.81 3.44 0.81 7 2 C7.33 2.99 7.66 3.98 8 5 C3.54 5.5 3.54 5.5 -1 6 C-0.67 4.02 -0.34 2.04 0 0 Z " fill="#353636" transform="translate(664,131)"/>
<path d="M0 0 C1.38 3.77 0.6 6.45 -0.44 10.25 C-0.72 11.33 -1.01 12.41 -1.31 13.52 C-1.54 14.34 -1.76 15.16 -2 16 C-2.33 16 -2.66 16 -3 16 C-3.33 12.7 -3.66 9.4 -4 6 C-3.01 5.67 -2.02 5.34 -1 5 C-0.67 3.35 -0.34 1.7 0 0 Z " fill="#363534" transform="translate(396,379)"/>
<path d="M0 0 C0.66 1.32 1.32 2.64 2 4 C0.86 4.65 0.86 4.65 -0.31 5.31 C-2.58 6.74 -4.22 8.03 -6 10 C-6.66 9.67 -7.32 9.34 -8 9 C-5.36 6.03 -2.72 3.06 0 0 Z " fill="#2C2C2C" transform="translate(214,228)"/>
<path d="M0 0 C0 3.88 -1 5.92 -3.62 8.75 C-4.31 9.37 -4.31 9.37 -5 10 C-5.66 9.67 -6.32 9.34 -7 9 C-4.69 6.03 -2.38 3.06 0 0 Z " fill="#383838" transform="translate(195,250)"/>
<path d="M0 0 C2 3.75 2 3.75 2 6 C0.35 6.66 -1.3 7.32 -3 8 C-1.12 2.25 -1.12 2.25 0 0 Z " fill="#2A2A2A" transform="translate(158,305)"/>
<path d="M0 0 C1.32 0 2.64 0 4 0 C4 0.66 4 1.32 4 2 C5.32 2.33 6.64 2.66 8 3 C3.54 3.5 3.54 3.5 -1 4 C-0.34 3.67 0.32 3.34 1 3 C0.67 2.01 0.34 1.02 0 0 Z " fill="#323130" transform="translate(608,912)"/>
<path d="M0 0 C0.33 2.64 0.66 5.28 1 8 C0.57 7.38 0.13 6.76 -0.31 6.12 C-2 3.78 -2 3.78 -5 2 C-2 0 -2 0 0 0 Z " fill="#121212" transform="translate(905,659)"/>
<path d="M0 0 C0.99 0.33 1.98 0.66 3 1 C1.68 1.33 0.36 1.66 -1 2 C-0.67 1.34 -0.34 0.68 0 0 Z " fill="#4C4C4B" transform="translate(785,736)"/>
<path d="M0 0 C0.66 0 1.32 0 2 0 C1.67 0.99 1.34 1.98 1 3 C0.67 2.01 0.34 1.02 0 0 Z " fill="#454445" transform="translate(256,184)"/>
<path d="M0 0 C4 1 4 1 4 1 Z " fill="#4B4948" transform="translate(318,144)"/>
<path d="M0 0 C0.66 0 1.32 0 2 0 C1.67 0.66 1.34 1.32 1 2 C0.67 1.34 0.34 0.68 0 0 Z " fill="#434140" transform="translate(603,918)"/>
<path d="M0 0 C3 1 3 1 3 1 Z " fill="#4F504D" transform="translate(718,753)"/>
<path d="M0 0 C3 1 3 1 3 1 Z " fill="#4C4B4A" transform="translate(728,752)"/>
<path d="M0 0 C0.66 0.66 1.32 1.32 2 2 C1.34 2 0.68 2 0 2 C0 1.34 0 0.68 0 0 Z " fill="#504F4F" transform="translate(759,744)"/>
<path d="M0 0 C0.33 0.66 0.66 1.32 1 2 C0.34 1.67 -0.32 1.34 -1 1 C-0.67 0.67 -0.34 0.34 0 0 Z " fill="#4E4C4C" transform="translate(145,322)"/>
<path d="" fill="#4C4B4B" transform="translate(0,0)"/>
<path d="M0 0 C0.33 0.66 0.66 1.32 1 2 C0.34 1.67 -0.32 1.34 -1 1 C-0.67 0.67 -0.34 0.34 0 0 Z " fill="#4B4948" transform="translate(180,264)"/>
<path d="M0 0 C0.66 0.66 1.32 1.32 2 2 C1.34 2 0.68 2 0 2 C0 1.34 0 0.68 0 0 Z " fill="#484746" transform="translate(185,258)"/>
<path d="M0 0 C0.99 0.5 0.99 0.5 2 1 C1.01 1.5 1.01 1.5 0 2 C0 1.34 0 0.68 0 0 Z " fill="#423F40" transform="translate(200,240)"/>
<path d="M0 0 C3 1 3 1 3 1 Z " fill="#4C4C4C" transform="translate(352,128)"/>
<path d="M0 0 C3 1 3 1 3 1 Z " fill="#474645" transform="translate(613,112)"/>
<path d="M0 0 C0.99 0.5 0.99 0.5 2 1 C1.01 1.5 1.01 1.5 0 2 C0 1.34 0 0.68 0 0 Z " fill="#515250" transform="translate(430,104)"/>
<path d="M0 0 C2 1 2 1 2 1 Z " fill="#484747" transform="translate(541,924)"/>
<path d="M0 0 C2 1 2 1 2 1 Z " fill="#3A3B39" transform="translate(393,903)"/>
<path d="M0 0 C2 1 2 1 2 1 Z " fill="#413F3E" transform="translate(683,894)"/>
<path d="" fill="#3F3D3C" transform="translate(0,0)"/>
<path d="M0 0 C2 1 2 1 2 1 Z " fill="#3B3A39" transform="translate(307,863)"/>
<path d="M0 0 C2 1 2 1 2 1 Z " fill="#4F4E4C" transform="translate(640,752)"/>
<path d="" fill="#535250" transform="translate(0,0)"/>
<path d="M0 0 C2 1 2 1 2 1 Z " fill="#464545" transform="translate(582,737)"/>
<path d="" fill="#424140" transform="translate(0,0)"/>
<path d="" fill="#515051" transform="translate(0,0)"/>
<path d="" fill="#474546" transform="translate(0,0)"/>
<path d="" fill="#4A4545" transform="translate(0,0)"/>
<path d="" fill="#494846" transform="translate(0,0)"/>
<path d="M0 0 C2 1 2 1 2 1 Z " fill="#494948" transform="translate(278,169)"/>
<path d="M0 0 C2 1 2 1 2 1 Z " fill="#49484A" transform="translate(280,168)"/>
<path d="M0 0 C2 1 2 1 2 1 Z " fill="#4B4949" transform="translate(374,120)"/>
<path d="M0 0 C2 1 2 1 2 1 Z " fill="#524F4E" transform="translate(418,107)"/>
<path d="M0 0 C2 1 2 1 2 1 Z " fill="#4E4F4C" transform="translate(583,105)"/>
<path d="M0 0 C2 1 2 1 2 1 Z " fill="#545354" transform="translate(433,104)"/>
<path d="M0 0 C2 1 2 1 2 1 Z " fill="#575754" transform="translate(518,98)"/>
<path d="" fill="#333332" transform="translate(0,0)"/>
<path d="" fill="#494746" transform="translate(0,0)"/>
<path d="" fill="#474746" transform="translate(0,0)"/>
<path d="" fill="#4A4847" transform="translate(0,0)"/>
<path d="" fill="#4C4947" transform="translate(0,0)"/>
<path d="" fill="#444544" transform="translate(0,0)"/>
<path d="" fill="#464443" transform="translate(0,0)"/>
<path d="" fill="#454443" transform="translate(0,0)"/>
<path d="" fill="#444243" transform="translate(0,0)"/>
<path d="" fill="#413F3E" transform="translate(0,0)"/>
<path d="" fill="#434140" transform="translate(0,0)"/>
<path d="" fill="#424344" transform="translate(0,0)"/>
<path d="" fill="#3F3D3D" transform="translate(0,0)"/>
<path d="" fill="#3F3E3E" transform="translate(0,0)"/>
<path d="" fill="#40413F" transform="translate(0,0)"/>
<path d="" fill="#423E3D" transform="translate(0,0)"/>
<path d="" fill="#3B3A38" transform="translate(0,0)"/>
<path d="" fill="#3D3C3B" transform="translate(0,0)"/>
<path d="" fill="#3D3C3B" transform="translate(0,0)"/>
<path d="" fill="#3B3A38" transform="translate(0,0)"/>
<path d="" fill="#3C3C3B" transform="translate(0,0)"/>
<path d="" fill="#3C3B3A" transform="translate(0,0)"/>
<path d="" fill="#373535" transform="translate(0,0)"/>
<path d="" fill="#3A3A36" transform="translate(0,0)"/>
<path d="" fill="#393C38" transform="translate(0,0)"/>
<path d="" fill="#3B3C3B" transform="translate(0,0)"/>
<path d="" fill="#3D3A3B" transform="translate(0,0)"/>
<path d="" fill="#3C3A38" transform="translate(0,0)"/>
<path d="" fill="#3B3A38" transform="translate(0,0)"/>
<path d="" fill="#393736" transform="translate(0,0)"/>
<path d="" fill="#3E3C3A" transform="translate(0,0)"/>
<path d="" fill="#3E3D3D" transform="translate(0,0)"/>
<path d="" fill="#403E3E" transform="translate(0,0)"/>
<path d="" fill="#3B3839" transform="translate(0,0)"/>
<path d="" fill="#3B3A38" transform="translate(0,0)"/>
<path d="" fill="#3E3D3C" transform="translate(0,0)"/>
<path d="" fill="#535151" transform="translate(0,0)"/>
<path d="" fill="#4E4F4D" transform="translate(0,0)"/>
<path d="" fill="#525350" transform="translate(0,0)"/>
<path d="" fill="#403F3C" transform="translate(0,0)"/>
<path d="" fill="#51504F" transform="translate(0,0)"/>
<path d="" fill="#4D4B4C" transform="translate(0,0)"/>
<path d="" fill="#4F504D" transform="translate(0,0)"/>
<path d="" fill="#4B4B47" transform="translate(0,0)"/>
<path d="" fill="#4C4B48" transform="translate(0,0)"/>
<path d="" fill="#4C4B4C" transform="translate(0,0)"/>
<path d="" fill="#51524F" transform="translate(0,0)"/>
<path d="" fill="#50504E" transform="translate(0,0)"/>
<path d="" fill="#4C4C4B" transform="translate(0,0)"/>
<path d="" fill="#535351" transform="translate(0,0)"/>
<path d="" fill="#4D4D4D" transform="translate(0,0)"/>
<path d="" fill="#4C4A4A" transform="translate(0,0)"/>
<path d="" fill="#454342" transform="translate(0,0)"/>
<path d="" fill="#454343" transform="translate(0,0)"/>
<path d="" fill="#3F3C3B" transform="translate(0,0)"/>
<path d="" fill="#3D3E3C" transform="translate(0,0)"/>
<path d="" fill="#444240" transform="translate(0,0)"/>
<path d="" fill="#4B4B49" transform="translate(0,0)"/>
<path d="" fill="#3D3D3D" transform="translate(0,0)"/>
<path d="" fill="#525351" transform="translate(0,0)"/>
<path d="" fill="#4E4D4C" transform="translate(0,0)"/>
<path d="" fill="#444243" transform="translate(0,0)"/>
<path d="" fill="#464545" transform="translate(0,0)"/>
<path d="" fill="#4A4847" transform="translate(0,0)"/>
<path d="" fill="#4A4C4B" transform="translate(0,0)"/>
<path d="" fill="#4B4C48" transform="translate(0,0)"/>
<path d="" fill="#494948" transform="translate(0,0)"/>
<path d="" fill="#444643" transform="translate(0,0)"/>
<path d="" fill="#4F504D" transform="translate(0,0)"/>
<path d="" fill="#424141" transform="translate(0,0)"/>
<path d="" fill="#3D3C3B" transform="translate(0,0)"/>
<path d="" fill="#4D4E4D" transform="translate(0,0)"/>
<path d="" fill="#4A4A47" transform="translate(0,0)"/>
<path d="" fill="#494646" transform="translate(0,0)"/>
<path d="" fill="#524F50" transform="translate(0,0)"/>
<path d="" fill="#51504C" transform="translate(0,0)"/>
<path d="" fill="#484747" transform="translate(0,0)"/>
<path d="" fill="#4E524E" transform="translate(0,0)"/>
<path d="" fill="#4E4E4E" transform="translate(0,0)"/>
<path d="" fill="#41413F" transform="translate(0,0)"/>
<path d="" fill="#424342" transform="translate(0,0)"/>
<path d="" fill="#42413D" transform="translate(0,0)"/>
<path d="" fill="#4C4C4C" transform="translate(0,0)"/>
<path d="" fill="#4C494B" transform="translate(0,0)"/>
<path d="" fill="#464440" transform="translate(0,0)"/>
<path d="" fill="#403E40" transform="translate(0,0)"/>
<path d="" fill="#474846" transform="translate(0,0)"/>
<path d="" fill="#4D4D4C" transform="translate(0,0)"/>
<path d="" fill="#4B4A4D" transform="translate(0,0)"/>
<path d="" fill="#504D50" transform="translate(0,0)"/>
<path d="" fill="#514F4F" transform="translate(0,0)"/>
<path d="" fill="#3F413F" transform="translate(0,0)"/>
<path d="" fill="#424041" transform="translate(0,0)"/>
<path d="" fill="#4F504E" transform="translate(0,0)"/>
<path d="" fill="#51504E" transform="translate(0,0)"/>
<path d="" fill="#525251" transform="translate(0,0)"/>
<path d="" fill="#484646" transform="translate(0,0)"/>
<path d="" fill="#51524E" transform="translate(0,0)"/>
<path d="" fill="#525455" transform="translate(0,0)"/>
<path d="" fill="#545352" transform="translate(0,0)"/>
<path d="" fill="#545252" transform="translate(0,0)"/>
<path d="" fill="#545553" transform="translate(0,0)"/>
<path d="" fill="#545551" transform="translate(0,0)"/>
<path d="" fill="#565556" transform="translate(0,0)"/>
<path d="" fill="#575755" transform="translate(0,0)"/>
<path d="" fill="#4B4A4B" transform="translate(0,0)"/>
<path d="" fill="#4A4747" transform="translate(0,0)"/>
<path d="" fill="#4B4B4A" transform="translate(0,0)"/>
<path d="" fill="#575355" transform="translate(0,0)"/>
<path d="" fill="#434043" transform="translate(0,0)"/>
<path d="" fill="#4B4B4B" transform="translate(0,0)"/>
<path d="" fill="#4A4A4A" transform="translate(0,0)"/>
<path d="" fill="#42433F" transform="translate(0,0)"/>
<path d="" fill="#4C4B4B" transform="translate(0,0)"/>
<path d="" fill="#4E4E4D" transform="translate(0,0)"/>
<path d="" fill="#4E4E4C" transform="translate(0,0)"/>
<path d="" fill="#504B4C" transform="translate(0,0)"/>
<path d="" fill="#4B4B4A" transform="translate(0,0)"/>
<path d="" fill="#434240" transform="translate(0,0)"/>
<path d="" fill="#4D4E4C" transform="translate(0,0)"/>
<path d="" fill="#545452" transform="translate(0,0)"/>
<path d="" fill="#4A4946" transform="translate(0,0)"/>
<path d="" fill="#514F4E" transform="translate(0,0)"/>
<path d="" fill="#3F403E" transform="translate(0,0)"/>
<path d="" fill="#4A4A49" transform="translate(0,0)"/>
<path d="" fill="#403D3E" transform="translate(0,0)"/>
<path d="" fill="#494849" transform="translate(0,0)"/>
<path d="" fill="#4A4848" transform="translate(0,0)"/>
<path d="" fill="#4D4C4B" transform="translate(0,0)"/>
<path d="" fill="#444344" transform="translate(0,0)"/>
<path d="" fill="#414040" transform="translate(0,0)"/>
<path d="" fill="#403F3F" transform="translate(0,0)"/>
<path d="" fill="#424140" transform="translate(0,0)"/>
<path d="" fill="#4A494B" transform="translate(0,0)"/>
<path d="" fill="#434341" transform="translate(0,0)"/>
<path d="" fill="#464845" transform="translate(0,0)"/>
<path d="" fill="#464545" transform="translate(0,0)"/>
<path d="" fill="#4C4B4A" transform="translate(0,0)"/>
<path d="" fill="#454242" transform="translate(0,0)"/>
<path d="" fill="#434342" transform="translate(0,0)"/>
<path d="" fill="#454344" transform="translate(0,0)"/>
<path d="" fill="#444242" transform="translate(0,0)"/>
<path d="" fill="#454747" transform="translate(0,0)"/>
<path d="" fill="#484746" transform="translate(0,0)"/>
<path d="" fill="#484643" transform="translate(0,0)"/>
<path d="" fill="#4B4647" transform="translate(0,0)"/>
<path d="" fill="#474646" transform="translate(0,0)"/>
<path d="" fill="#484846" transform="translate(0,0)"/>
<path d="" fill="#464543" transform="translate(0,0)"/>
<path d="" fill="#4A4847" transform="translate(0,0)"/>
<path d="" fill="#494846" transform="translate(0,0)"/>
<path d="" fill="#434543" transform="translate(0,0)"/>
<path d="" fill="#414341" transform="translate(0,0)"/>
<path d="" fill="#4B4D4B" transform="translate(0,0)"/>
<path d="" fill="#4E494B" transform="translate(0,0)"/>
<path d="" fill="#464443" transform="translate(0,0)"/>
<path d="" fill="#4A4848" transform="translate(0,0)"/>
<path d="" fill="#4B4C47" transform="translate(0,0)"/>
<path d="" fill="#494947" transform="translate(0,0)"/>
<path d="" fill="#4A4C4A" transform="translate(0,0)"/>
<path d="" fill="#4E4B4A" transform="translate(0,0)"/>
<path d="" fill="#4E4D4D" transform="translate(0,0)"/>
<path d="" fill="#4D4D4C" transform="translate(0,0)"/>
<path d="" fill="#494749" transform="translate(0,0)"/>
<path d="" fill="#4A4A49" transform="translate(0,0)"/>
<path d="" fill="#4D4C4B" transform="translate(0,0)"/>
<path d="" fill="#4A4A48" transform="translate(0,0)"/>
<path d="" fill="#4B4C4A" transform="translate(0,0)"/>
<path d="" fill="#474746" transform="translate(0,0)"/>
<path d="" fill="#464744" transform="translate(0,0)"/>
<path d="" fill="#4F4E4C" transform="translate(0,0)"/>
<path d="" fill="#4C4C4C" transform="translate(0,0)"/>
<path d="" fill="#4A4946" transform="translate(0,0)"/>
<path d="" fill="#4D4B4A" transform="translate(0,0)"/>
<path d="" fill="#4B4A4A" transform="translate(0,0)"/>
<path d="" fill="#4F4C4A" transform="translate(0,0)"/>
<path d="" fill="#4A4A48" transform="translate(0,0)"/>
<path d="" fill="#494A4A" transform="translate(0,0)"/>
<path d="" fill="#585757" transform="translate(0,0)"/>
<path d="" fill="#4E4F50" transform="translate(0,0)"/>
<path d="" fill="#4C4D4C" transform="translate(0,0)"/>
<path d="" fill="#4B4E4A" transform="translate(0,0)"/>
<path d="" fill="#4C4A48" transform="translate(0,0)"/>
<path d="" fill="#474B48" transform="translate(0,0)"/>
<path d="" fill="#4F4D4D" transform="translate(0,0)"/>
<path d="" fill="#4E4C4B" transform="translate(0,0)"/>
<path d="" fill="#474547" transform="translate(0,0)"/>
<path d="" fill="#484B4A" transform="translate(0,0)"/>
<path d="" fill="#4F514F" transform="translate(0,0)"/>
<path d="" fill="#4B4A4A" transform="translate(0,0)"/>
<path d="" fill="#4E4E4D" transform="translate(0,0)"/>
<path d="" fill="#4F4D4B" transform="translate(0,0)"/>
<path d="" fill="#484749" transform="translate(0,0)"/>
<path d="" fill="#474546" transform="translate(0,0)"/>
<path d="" fill="#504F50" transform="translate(0,0)"/>
<path d="" fill="#555453" transform="translate(0,0)"/>
<path d="" fill="#504E4D" transform="translate(0,0)"/>
<path d="" fill="#51514F" transform="translate(0,0)"/>
<path d="" fill="#535151" transform="translate(0,0)"/>
<path d="" fill="#565453" transform="translate(0,0)"/>
<path d="" fill="#555753" transform="translate(0,0)"/>
<path d="" fill="#575755" transform="translate(0,0)"/>
<path d="" fill="#555657" transform="translate(0,0)"/>
</svg>
